<svg xmlns="http://www.w3.org/2000/svg" viewBox="0 0 288.18 135.46"><defs><style>.cls-1{fill:#fff;}</style></defs><title>Asset 2</title><g id="Layer_2" data-name="Layer 2"><g id="Layer_1-2" data-name="Layer 1"><path class="cls-1" d="M68,0c39.49,0,68.23,28.15,68.23,67.45S107.53,134.9,68,134.9c-39.3,0-68-28.15-68-67.45S28.74,0,68,0Zm0,24.63C44,24.63,28.54,43,28.54,67.45,28.54,91.69,44,110.27,68,110.27s39.69-18.57,39.69-42.82C107.73,43,92.09,24.63,68,24.63Z"/><path class="cls-1" d="M232.65,0c27.18,0,44.19,13.69,54,29.13L263.54,41.64a36.93,36.93,0,0,0-30.89-17c-23.66,0-40.86,18.18-40.86,42.82s17.2,42.82,40.86,42.82c11.54,0,22.48-5.08,27.76-10V84.66H226V60.41h62.17v50.05c-13.29,14.86-31.87,24.63-55.53,24.63-38.12,0-69.41-26.59-69.41-67.65C163.25,26.2,194.53,0,232.65,0Z"/><rect class="cls-1" x="135.81" y="110.4" width="25.06" height="25.06"/></g></g></svg>